<?xml version="1.0" encoding="UTF-8"?>
<svg id="Layer_2" data-name="Layer 2" xmlns="http://www.w3.org/2000/svg" viewBox="0 0 21.07 21.07">
  <g id="Layer_1-2" data-name="Layer 1">
    <g>
      <path d="M1.02,20.05c-.26-.26-.4-.56-.4-.9,0-.38.13-.7.4-.94.26-.24.56-.36.9-.36.38,0,.7.12.94.36.24.24.36.55.36.94,0,.34-.12.64-.36.9-.24.26-.55.4-.94.4-.34,0-.64-.13-.9-.4ZM5.48,15.59c-.26-.26-.4-.56-.4-.9,0-.38.13-.7.4-.94.26-.24.56-.36.9-.36.38,0,.7.12.94.36.24.24.36.55.36.94,0,.34-.12.64-.36.9-.24.26-.55.4-.94.4-.34,0-.64-.13-.9-.4ZM4.63,3.24c-.39-.39-.59-.83-.59-1.33,0-.57.19-1.03.59-1.38.39-.35.83-.53,1.33-.53.57,0,1.03.18,1.38.53.35.36.53.82.53,1.38,0,.5-.18.94-.53,1.33-.36.39-.82.59-1.38.59-.5,0-.94-.19-1.33-.59ZM9.94,11.12c-.26-.26-.4-.56-.4-.9,0-.38.13-.7.4-.94.26-.24.56-.36.9-.36.38,0,.7.12.94.36.24.24.36.55.36.94,0,.34-.12.64-.36.9-.24.26-.55.4-.94.4-.34,0-.64-.13-.9-.4ZM11.23,3.24c-.39-.39-.59-.83-.59-1.33,0-.57.19-1.03.59-1.38.39-.35.83-.53,1.33-.53.57,0,1.03.18,1.38.53.35.36.53.82.53,1.38,0,.5-.18.94-.53,1.33-.36.39-.82.59-1.38.59-.5,0-.94-.19-1.33-.59ZM17.82,3.24c-.39-.39-.59-.83-.59-1.33,0-.57.19-1.03.59-1.38.39-.35.83-.53,1.33-.53.57,0,1.03.18,1.38.53.35.36.53.82.53,1.38,0,.5-.18.94-.53,1.33-.36.39-.82.59-1.38.59-.5,0-.94-.19-1.33-.59ZM17.82,9.84c-.39-.39-.59-.83-.59-1.33,0-.57.19-1.03.59-1.38.39-.35.83-.53,1.33-.53.57,0,1.03.18,1.38.53.35.36.53.82.53,1.38,0,.5-.18.94-.53,1.33-.36.39-.82.59-1.38.59-.5,0-.94-.19-1.33-.59ZM17.82,16.44c-.39-.39-.59-.83-.59-1.33,0-.57.19-1.03.59-1.38.39-.35.83-.53,1.33-.53.57,0,1.03.18,1.38.53.35.36.53.82.53,1.38,0,.5-.18.94-.53,1.33-.36.39-.82.59-1.38.59-.5,0-.94-.19-1.33-.59Z"/>
      <path d="M9.51,11.55c-.39-.39-.59-.83-.59-1.33,0-.57.19-1.03.59-1.38.39-.35.83-.53,1.33-.53.57,0,1.03.18,1.38.53.35.36.53.82.53,1.38,0,.5-.18.94-.53,1.33-.36.39-.82.59-1.38.59-.5,0-.94-.19-1.33-.59Z"/>
      <path d="M5.05,16.02c-.39-.39-.59-.83-.59-1.33,0-.57.19-1.03.59-1.38.39-.35.83-.53,1.33-.53.57,0,1.03.18,1.38.53.35.36.53.82.53,1.38,0,.5-.18.94-.53,1.33-.36.39-.82.59-1.38.59-.5,0-.94-.19-1.33-.59Z"/>
      <path d="M.59,20.48c-.39-.39-.59-.83-.59-1.33,0-.57.19-1.03.59-1.38.39-.35.83-.53,1.33-.53.57,0,1.03.18,1.38.53.35.36.53.82.53,1.38,0,.5-.18.94-.53,1.33-.36.39-.82.59-1.38.59-.5,0-.94-.19-1.33-.59Z"/>
    </g>
  </g>
</svg>