<svg width="46" height="45" viewBox="0 0 46 45" fill="none" xmlns="http://www.w3.org/2000/svg">
<g id="&#240;&#159;&#166;&#134; icon &#34;mark github&#34;">
<path id="Vector" fill-rule="evenodd" clip-rule="evenodd" d="M22.8988 0.0802612C10.2472 0.0802612 0 10.3275 0 22.979C0 33.1117 6.55477 41.6702 15.657 44.7042C16.802 44.9046 17.2313 44.2176 17.2313 43.6166C17.2313 43.0727 17.2027 41.2694 17.2027 39.3517C11.4494 40.4107 9.96097 37.9491 9.50299 36.661C9.24538 36.0027 8.12906 33.9704 7.15587 33.4266C6.35441 32.9972 5.20947 31.9382 7.12724 31.9096C8.93052 31.8809 10.2186 33.5697 10.6479 34.2567C12.7088 37.7201 16.0005 36.7469 17.3172 36.1458C17.5176 34.6574 18.1187 33.6556 18.777 33.0831C13.682 32.5106 8.35805 30.5356 8.35805 21.7768C8.35805 19.2866 9.24538 17.2257 10.7052 15.6228C10.4762 15.0503 9.67473 12.7032 10.9342 9.55463C10.9342 9.55463 12.8519 8.95354 17.2313 11.9018C19.0632 11.3865 21.0096 11.1289 22.956 11.1289C24.9024 11.1289 26.8488 11.3865 28.6807 11.9018C33.0601 8.92491 34.9779 9.55463 34.9779 9.55463C36.2373 12.7032 35.4358 15.0503 35.2069 15.6228C36.6667 17.2257 37.554 19.258 37.554 21.7768C37.554 30.5643 32.2014 32.5106 27.1064 33.0831C27.9365 33.7987 28.6521 35.1726 28.6521 37.3194C28.6521 40.3821 28.6235 42.8437 28.6235 43.6166C28.6235 44.2176 29.0528 44.9332 30.1978 44.7042C34.7436 43.1696 38.6937 40.2481 41.4921 36.3508C44.2905 32.4536 45.7963 27.7769 45.7975 22.979C45.7975 10.3275 35.5503 0.0802612 22.8988 0.0802612Z" fill="#9CA3AF"/>
</g>
</svg>
