<?xml version="1.0" encoding="UTF-8"?>
<svg id="Layer_2" xmlns="http://www.w3.org/2000/svg" viewBox="0 0 45.8 44.67">
  <defs>
    <style>
      .cls-1 {
        fill: "currentColor";
        fill-rule: evenodd;
      }
    </style>
  </defs>
  <g id="Layer_1-2" data-name="Layer_1">
    <g id="_รฐ_x9F__xA6__x86__icon__x22_mark_github_x22_" data-name="รฐ_x9F__xA6__x86__icon__x22_mark_github_x22_">
      <path id="Vector" class="cls-1" d="M22.9,0C10.25,0,0,10.25,0,22.9c0,10.13,6.55,18.69,15.66,21.73,1.15.2,1.57-.49,1.57-1.09,0-.54-.03-2.35-.03-4.26-5.75,1.06-7.24-1.4-7.7-2.69-.26-.66-1.37-2.69-2.35-3.23-.8-.43-1.95-1.49-.03-1.52,1.8-.03,3.09,1.66,3.52,2.35,2.06,3.46,5.35,2.49,6.67,1.89.2-1.49.8-2.49,1.46-3.06-5.1-.57-10.42-2.55-10.42-11.31,0-2.49.89-4.55,2.35-6.15-.23-.57-1.03-2.92.23-6.07,0,0,1.92-.6,6.3,2.35,1.83-.52,3.78-.77,5.72-.77s3.89.26,5.72.77c4.38-2.98,6.3-2.35,6.3-2.35,1.26,3.15.46,5.5.23,6.07,1.46,1.6,2.35,3.64,2.35,6.15,0,8.79-5.35,10.73-10.45,11.31.83.72,1.55,2.09,1.55,4.24,0,3.06-.03,5.52-.03,6.3,0,.6.43,1.32,1.57,1.09,4.55-1.53,8.5-4.46,11.29-8.35,2.8-3.9,4.3-8.57,4.31-13.37C45.8,10.25,35.55,0,22.9,0Z"/>
    </g>
  </g>
</svg>